<?xml version="1.0" standalone="no"?>
<!DOCTYPE svg PUBLIC "-//W3C//DTD SVG 20010904//EN"
 "http://www.w3.org/TR/2001/REC-SVG-20010904/DTD/svg10.dtd">
<svg version="1.0" xmlns="http://www.w3.org/2000/svg"
 width="386.000000pt" height="386.000000pt" viewBox="0 0 386.000000 386.000000"
 preserveAspectRatio="xMidYMid meet">
<metadata>
Created by potrace 1.11, written by Peter Selinger 2001-2013
</metadata>
<g transform="translate(0.000000,386.000000) scale(0.100000,-0.100000)"
fill="#000000" stroke="none">
<path d="M1410 3796 c0 -10 -6 -13 -15 -10 -11 5 -15 -1 -15 -20 0 -16 -6 -26
-15 -26 -14 0 -20 -12 -16 -34 1 -4 -4 -15 -11 -23 -6 -8 -12 -23 -13 -34 -1
-14 1 -16 12 -8 16 14 17 5 2 -23 -10 -18 -8 -19 12 -13 19 6 20 5 8 -8 -8 -8
-18 -14 -24 -12 -5 1 -7 0 -2 -2 4 -3 4 -10 0 -16 -4 -6 -1 -8 8 -5 12 5 15
-3 16 -31 0 -26 -1 -29 -4 -8 -2 15 -10 27 -18 27 -8 0 -11 -7 -8 -20 3 -11
-1 -28 -8 -37 -12 -14 -12 -15 0 -9 10 7 12 3 6 -15 -5 -18 -4 -20 4 -9 9 13
12 13 23 1 11 -11 11 -13 0 -6 -10 5 -13 1 -10 -16 2 -14 -2 -24 -9 -24 -7 0
-13 -4 -12 -10 1 -5 5 -9 9 -8 4 1 10 -7 13 -18 5 -17 3 -18 -9 -8 -12 10 -13
9 -8 -6 6 -14 4 -16 -7 -10 -12 7 -12 6 -1 -7 13 -16 12 -44 -2 -67 -6 -10 -5
-12 2 -7 16 10 15 -7 0 -23 -10 -11 -10 -13 0 -7 15 9 16 -10 2 -19 -7 -4 -7
-12 -2 -18 10 -14 10 -27 -1 -44 -5 -8 -4 -13 2 -13 6 0 11 5 11 10 0 6 5 10
11 10 6 0 8 -8 5 -17 -3 -10 0 -30 8 -44 11 -21 11 -26 0 -26 -7 0 -10 5 -7
11 3 6 0 5 -7 -1 -12 -11 -11 -16 6 -29 17 -14 17 -15 1 -10 -12 4 -17 2 -14
-6 2 -7 11 -12 20 -12 9 1 14 -3 11 -8 -4 -5 -16 -7 -28 -4 -20 5 -20 4 -2 -9
10 -8 23 -12 29 -8 6 3 7 1 3 -6 -4 -7 -17 -9 -29 -6 -12 4 -17 3 -12 -2 9 -7
12 -27 5 -35 -1 -2 -3 -13 -4 -25 -2 -13 2 -19 10 -16 6 2 15 -1 20 -8 4 -7 3
-10 -3 -6 -6 4 -14 0 -17 -9 -5 -12 -1 -14 17 -9 17 5 19 4 7 -4 -13 -10 -13
-12 0 -21 9 -6 10 -10 3 -10 -6 0 -15 5 -18 10 -9 15 -25 2 -19 -15 4 -8 10
-12 15 -9 5 3 9 0 9 -5 0 -6 -5 -11 -11 -11 -5 0 -7 -4 -4 -10 3 -5 2 -10 -2
-10 -5 0 -9 -9 -10 -20 -1 -13 2 -18 10 -13 7 4 5 -2 -3 -12 -13 -17 -13 -18
0 -11 13 7 13 6 0 -6 -8 -7 -17 -29 -18 -48 -2 -19 -8 -40 -13 -47 -7 -7 -6
-14 1 -18 9 -6 14 1 11 18 -2 14 17 7 23 -9 3 -9 2 -12 -5 -9 -13 9 -8 -27 6
-37 6 -5 5 -8 -2 -9 -7 -1 -17 -2 -23 -3 -11 -1 -12 -9 -4 -30 3 -8 13 -12 22
-10 15 5 15 4 0 -6 -10 -6 -23 -21 -28 -33 -11 -22 -11 -22 6 -2 15 18 16 18
10 2 -3 -10 -6 -25 -6 -33 0 -9 -4 -13 -9 -10 -8 5 -8 -22 -1 -31 2 -2 3 -6 4
-10 1 -5 5 -14 9 -20 6 -9 3 -11 -9 -6 -12 4 -15 3 -10 -5 4 -7 14 -12 22 -12
8 0 14 -5 14 -11 0 -6 -7 -9 -15 -6 -8 4 -17 1 -21 -5 -5 -7 -2 -8 6 -3 10 6
11 4 6 -11 -5 -10 -10 -38 -11 -62 -2 -33 0 -40 10 -32 9 8 11 4 7 -15 -4 -22
-7 -24 -21 -13 -13 10 -14 10 -4 -1 6 -7 9 -20 6 -27 -3 -8 0 -14 7 -14 6 0 8
5 5 10 -10 16 1 11 16 -7 12 -14 12 -16 0 -8 -11 6 -13 4 -8 -9 6 -14 4 -15
-16 -5 -17 9 -20 9 -10 -1 6 -7 9 -20 5 -29 -5 -14 -4 -14 11 -2 10 8 20 11
24 7 3 -3 1 -6 -5 -6 -7 0 -12 -10 -12 -21 0 -19 -2 -20 -17 -8 -16 12 -17 12
-6 -2 10 -12 10 -18 0 -29 -10 -12 -9 -12 4 -2 14 10 18 10 23 -3 3 -9 2 -13
-3 -10 -5 3 -12 1 -16 -5 -5 -9 6 -14 26 -12 3 1 6 -5 6 -12 0 -7 -6 -13 -13
-13 -7 0 -11 3 -9 7 2 4 -2 7 -9 7 -7 0 -13 -6 -13 -13 0 -7 4 -11 7 -9 4 3 8
-6 8 -20 0 -14 -4 -23 -8 -20 -3 2 -7 -2 -7 -10 0 -11 4 -12 14 -4 17 14 17
-3 1 -20 -11 -10 -10 -12 2 -9 8 2 14 -3 12 -9 -1 -7 4 -13 10 -13 10 0 10 -2
0 -9 -8 -4 -13 -11 -13 -15 3 -18 0 -20 -10 -6 -9 13 -10 13 -6 0 2 -8 11 -14
19 -12 12 2 15 -5 13 -28 -1 -16 2 -30 7 -30 5 0 4 -9 -2 -20 -6 -11 -15 -18
-20 -15 -6 4 -7 -3 -1 -17 4 -13 6 -29 4 -35 -3 -7 0 -13 7 -13 6 0 9 4 6 8
-3 5 1 9 9 9 22 0 18 -15 -6 -22 -11 -4 -18 -9 -15 -12 3 -4 1 -12 -5 -20 -16
-18 -4 -16 16 3 24 25 28 11 4 -15 -22 -23 -19 -57 4 -48 8 3 14 -1 14 -8 0
-10 -5 -11 -18 -4 -12 6 -20 5 -25 -3 -4 -7 -4 -10 1 -6 11 11 36 -12 28 -25
-3 -5 -6 -24 -5 -41 l1 -31 -15 25 c-10 16 -13 18 -8 5 4 -11 6 -28 6 -37 0
-10 4 -18 9 -18 6 0 8 4 5 8 -3 5 1 9 9 9 22 0 18 -15 -6 -22 -11 -4 -18 -9
-15 -12 3 -4 1 -12 -5 -20 -16 -18 -4 -16 16 3 24 25 28 11 4 -15 -22 -23 -19
-57 4 -48 8 3 14 -1 14 -8 0 -10 -5 -11 -18 -4 -12 6 -20 5 -25 -3 -4 -6 -3
-8 3 -5 6 4 16 0 22 -7 9 -11 9 -16 0 -22 -8 -4 -9 -3 -5 4 4 7 3 12 -3 12 -5
0 -9 -9 -8 -19 0 -11 5 -17 9 -15 4 3 8 0 8 -5 0 -6 -8 -11 -17 -11 -15 0 -15
-2 -4 -9 8 -5 21 -7 30 -4 12 3 12 2 -2 -7 -9 -6 -23 -8 -30 -4 -8 6 -8 3 1
-9 8 -9 10 -22 6 -28 -4 -8 -3 -9 4 -5 7 4 12 2 12 -3 0 -6 -8 -11 -17 -12
-14 0 -13 -2 4 -9 23 -9 23 -41 0 -36 -7 1 -9 1 -4 -1 4 -3 4 -10 1 -15 -4 -7
-2 -8 4 -4 7 4 12 2 12 -3 0 -6 -8 -11 -17 -12 -16 0 -16 -1 1 -8 16 -6 17 -9
5 -13 -10 -4 -15 -18 -13 -44 0 -22 -4 -42 -10 -46 -8 -5 -7 -8 2 -8 8 0 10
-5 5 -12 -12 -20 -14 -48 -3 -48 6 0 10 -8 10 -17 0 -14 -2 -15 -9 -5 -7 11
-9 10 -14 -3 -4 -9 -3 -14 1 -11 4 2 15 -2 25 -9 16 -11 16 -13 2 -19 -9 -3
-13 -2 -10 4 3 6 1 10 -5 10 -7 0 -9 -7 -6 -16 3 -9 6 -17 6 -20 0 -2 8 -1 18
3 14 5 13 3 -3 -11 -19 -15 -19 -17 -2 -30 14 -10 15 -15 5 -19 -10 -4 -10 -8
2 -16 12 -8 12 -11 1 -11 -11 0 -11 -3 0 -17 12 -16 12 -17 -2 -6 -9 7 -19 10
-23 6 -4 -4 3 -12 15 -18 19 -11 19 -13 5 -18 -10 -4 -15 -3 -11 3 3 6 1 10
-5 10 -7 0 -9 -8 -5 -21 5 -16 4 -19 -5 -14 -9 6 -11 4 -5 -4 5 -9 10 -10 18
-2 6 6 15 11 21 11 5 0 2 -6 -7 -12 -19 -15 -13 -63 7 -51 8 5 8 3 0 -8 -14
-18 -14 -49 0 -49 6 0 5 -4 -2 -9 -8 -4 -13 -11 -13 -15 3 -18 0 -20 -10 -6
-9 13 -10 13 -6 0 2 -8 10 -15 18 -15 9 0 13 -9 11 -24 -2 -15 0 -21 7 -17 6
4 11 3 11 -2 0 -5 -10 -14 -22 -21 -13 -6 -16 -10 -6 -7 11 3 18 -4 23 -22 14
-49 14 -76 2 -84 -15 -10 12 -30 28 -20 5 3 4 -2 -4 -12 -9 -10 -11 -20 -5
-24 15 -11 15 -32 0 -32 -8 0 -17 8 -19 18 -3 12 -5 13 -6 2 -1 -13 -16 -15
-83 -13 -46 1 -112 5 -148 8 -36 4 -189 9 -340 11 -151 1 -309 6 -350 9 -188
15 -262 14 -277 -1 -8 -8 -13 -20 -10 -27 6 -15 -29 -41 -43 -32 -6 4 -10 2
-10 -3 0 -5 15 -13 33 -17 28 -6 29 -8 12 -15 -11 -4 -23 -6 -27 -4 -3 2 -4
-5 -1 -16 3 -11 9 -18 13 -15 5 3 10 1 12 -4 4 -12 47 -18 192 -26 72 -5 113
-11 105 -16 -10 -6 -10 -9 -2 -9 6 0 14 4 17 9 9 14 100 1 115 -17 13 -16 13
-16 8 1 -5 14 0 17 27 17 18 0 39 -7 46 -15 7 -8 17 -15 23 -15 6 0 2 6 -8 14
-16 11 -9 13 51 12 52 -1 68 -4 66 -14 -1 -8 2 -11 8 -7 6 3 8 10 5 15 -4 6
44 9 113 7 101 -1 119 -4 115 -17 -4 -13 -4 -13 6 0 16 23 128 11 114 -13 -4
-7 1 -6 11 2 17 14 56 15 176 6 66 -6 420 -6 455 -1 17 2 36 -1 44 -8 11 -8
13 -8 8 0 -4 8 5 13 27 16 22 2 32 0 28 -7 -3 -5 2 -4 11 4 16 12 22 8 18 -12
-1 -5 3 -6 9 -2 6 3 8 11 5 16 -4 5 2 9 12 10 10 0 26 2 35 4 10 2 23 -4 29
-13 10 -16 10 -15 5 1 -4 14 1 17 28 17 18 0 39 -7 46 -15 7 -8 17 -15 23 -15
6 0 2 6 -8 14 -16 11 -9 13 51 12 52 -1 68 -4 66 -14 -1 -8 2 -11 8 -7 6 3 8
11 4 16 -4 7 5 9 22 7 18 -2 28 -8 26 -16 -1 -8 2 -11 8 -7 6 3 8 10 5 15 -3
5 57 8 137 6 198 -5 188 -4 189 -23 0 -11 3 -13 6 -5 2 6 9 12 14 12 6 0 7 -6
3 -12 -6 -10 -5 -10 8 -1 8 7 17 10 20 7 11 -10 282 -6 286 5 2 6 8 11 13 11
6 0 7 -5 4 -10 -3 -6 -2 -10 4 -10 15 0 22 16 23 50 1 24 4 28 15 19 7 -7 16
-9 20 -5 3 3 1 6 -5 6 -7 0 -12 9 -12 21 0 13 4 18 12 13 7 -4 8 -3 4 5 -4 6
-12 9 -17 6 -5 -4 -17 -1 -26 4 -16 9 -16 10 5 11 38 0 24 17 -20 25 -24 5
-95 9 -158 10 -63 2 -128 5 -145 9 -16 3 -55 10 -85 15 -62 10 -649 8 -695 -3
-34 -8 -111 -14 -233 -18 -89 -3 -102 3 -107 45 -3 24 -15 102 -19 127 -1 8
-6 38 -10 65 -4 28 -10 64 -12 80 -10 56 -9 110 1 117 6 5 6 8 -1 8 -7 0 -10
19 -8 50 2 37 0 49 -9 43 -9 -5 -9 -3 -1 8 6 8 10 51 10 97 -1 46 3 86 8 89 5
4 6 1 2 -5 -4 -7 -2 -12 3 -12 15 0 14 11 -5 32 -15 16 -15 18 0 24 9 3 13 11
9 17 -10 17 -11 47 -1 41 13 -8 10 10 -4 25 -7 8 -8 11 -2 8 8 -4 11 15 10 62
0 44 -5 67 -11 63 -5 -3 -1 4 9 16 11 12 15 22 10 22 -5 0 -9 119 -10 278 0
152 -4 297 -8 322 -4 25 -8 70 -8 100 -1 30 -6 58 -12 62 -7 5 -3 8 9 8 11 0
16 4 10 8 -14 10 -14 92 -1 92 7 0 8 3 1 8 -11 7 -15 173 -4 167 3 -2 5 70 5
160 -1 105 3 165 9 165 5 0 4 4 -3 9 -11 6 -10 12 4 26 21 20 26 42 14 50 -5
3 -7 -4 -5 -16 2 -12 1 -19 -2 -15 -15 15 -10 39 9 44 14 3 16 7 7 13 -15 9
-23 49 -10 49 6 0 8 10 6 22 -3 12 1 28 8 37 6 8 7 12 1 8 -9 -5 -11 14 -5 90
1 7 9 10 19 7 14 -5 14 -4 2 4 -8 7 -19 7 -25 2 -7 -6 -11 -2 -11 10 0 10 4
17 7 14 4 -2 10 0 14 6 3 5 3 10 -2 10 -9 0 -14 101 -16 330 0 128 2 164 12
162 7 -1 10 2 6 8 -3 5 -2 10 2 10 5 0 9 8 9 19 0 10 -6 17 -12 14 -8 -3 -11
6 -9 27 3 33 15 55 15 27 0 -9 5 -17 11 -17 5 0 8 4 4 9 -8 15 21 19 130 20
55 1 109 3 120 4 11 1 19 -3 18 -9 -2 -12 41 -13 53 -1 4 3 -3 5 -14 2 -12 -2
-24 0 -27 6 -10 15 62 10 75 -6 7 -8 17 -15 23 -15 6 0 2 7 -9 15 -18 14 -16
15 26 9 25 -3 50 -7 56 -8 7 -1 20 -8 30 -16 11 -9 15 -10 10 -2 -11 18 5 15
19 -5 9 -13 14 -13 20 -3 5 9 4 11 -3 6 -7 -4 -12 -2 -12 4 0 7 7 9 16 6 9 -3
22 -6 30 -6 9 0 13 -4 9 -9 -3 -5 -1 -13 5 -16 6 -4 9 -1 8 7 -2 10 16 14 70
15 55 2 71 -1 66 -10 -5 -9 -4 -9 7 1 15 14 53 17 44 3 -3 -5 -1 -13 5 -16 6
-4 9 -1 8 7 -2 9 13 14 57 15 33 1 75 4 93 7 21 3 32 1 32 -7 0 -7 4 -6 10 3
9 14 14 7 11 -13 -1 -5 3 -6 9 -2 6 3 8 10 6 14 -3 4 51 8 119 9 96 1 127 -2
138 -13 8 -8 18 -11 22 -7 4 4 3 -3 -4 -15 -6 -12 -14 -23 -18 -25 -5 -3 -2
-3 5 -2 6 2 12 -4 12 -12 0 -9 -5 -12 -12 -8 -6 4 -8 3 -4 -4 3 -5 3 -12 -1
-15 -5 -2 -2 -2 5 -1 6 2 12 -3 12 -11 0 -8 -4 -14 -9 -12 -5 1 -9 -2 -9 -8 0
-5 4 -9 8 -8 4 1 10 -7 13 -18 5 -17 3 -18 -9 -8 -12 10 -13 9 -8 -6 6 -14 4
-16 -7 -11 -8 4 -4 -1 8 -12 25 -22 19 -39 -6 -19 -14 10 -14 10 -4 -4 10 -12
10 -18 0 -29 -9 -10 -9 -11 1 -6 14 9 17 -10 2 -19 -6 -4 -7 -12 -3 -18 12
-19 12 -36 2 -43 -6 -3 -5 -11 2 -20 9 -11 9 -14 -1 -14 -8 0 -11 -3 -8 -6 4
-3 16 -1 27 5 17 10 20 9 15 -4 -4 -8 -15 -15 -25 -15 -10 0 -19 -4 -19 -10 0
-5 -5 -10 -10 -10 -6 0 -21 -9 -33 -21 -40 -38 -95 -52 -77 -19 11 21 9 23
-29 20 -13 -1 -21 2 -17 8 3 6 2 13 -3 16 -5 3 -11 0 -14 -8 -3 -8 -24 -22
-46 -32 -23 -10 -41 -22 -41 -27 0 -4 -4 -6 -9 -2 -6 3 -35 -19 -65 -49 -54
-52 -70 -75 -43 -60 6 4 2 -3 -10 -14 -15 -15 -20 -30 -17 -48 3 -14 1 -23 -4
-20 -5 3 -9 -1 -9 -9 0 -10 4 -12 12 -5 9 8 14 6 19 -5 3 -10 2 -13 -5 -10
-12 8 -1 -44 14 -62 6 -9 5 -18 -4 -30 -10 -11 -10 -14 -1 -9 7 4 12 2 12 -4
0 -6 4 -8 10 -5 5 3 7 0 4 -9 -7 -17 24 -80 60 -121 14 -16 24 -35 22 -41 -3
-6 3 -11 12 -10 9 0 16 -5 14 -12 -1 -6 4 -11 10 -10 7 2 11 -4 10 -12 -2 -8
-1 -12 3 -8 4 4 23 -2 43 -12 19 -11 39 -17 44 -14 4 3 8 1 8 -4 0 -6 10 -8
22 -4 13 3 19 1 15 -5 -5 -7 0 -9 13 -6 11 3 28 2 37 -2 10 -5 22 -7 27 -6 5
1 4 -4 -2 -12 -9 -10 -9 -16 0 -25 9 -9 9 -12 -1 -12 -7 0 -9 -5 -4 -12 4 -7
8 -32 9 -55 1 -23 5 -47 9 -54 5 -7 4 -10 -2 -6 -12 8 -11 -58 0 -70 4 -3 7
-11 7 -17 0 -6 -5 -4 -10 4 -8 12 -10 11 -10 -7 0 -12 5 -25 10 -28 6 -4 8
-10 5 -14 -9 -15 -88 0 -169 33 -77 31 -175 69 -186 72 -3 0 -18 6 -35 13 -32
14 -100 39 -113 42 -4 1 -11 3 -17 5 -61 19 -86 22 -81 9 3 -9 -1 -12 -14 -10
-15 3 -18 -1 -14 -22 3 -14 0 -31 -7 -39 -8 -10 -8 -14 -1 -14 6 0 9 -6 7 -12
-5 -14 42 -41 56 -32 5 3 9 0 9 -6 0 -6 6 -10 13 -8 6 1 22 -3 35 -10 12 -7
22 -10 22 -7 0 3 13 -1 29 -9 16 -9 31 -12 35 -9 3 4 6 2 6 -4 0 -9 77 -39 93
-35 4 1 7 -2 7 -8 0 -6 3 -9 8 -9 4 1 10 0 15 -1 4 -1 10 -3 15 -5 11 -3 45
-16 67 -26 11 -4 27 -10 35 -11 8 -2 17 -6 20 -10 3 -4 15 -9 27 -11 12 -1 29
-9 39 -17 10 -8 15 -10 11 -4 -5 8 4 11 26 8 17 -1 40 -3 51 -3 15 -1 16 -4 6
-16 -11 -13 -10 -14 4 -9 12 5 15 2 9 -12 -4 -12 -3 -15 5 -10 8 5 10 1 5 -10
-6 -16 -7 -15 -20 2 -7 10 -13 13 -13 7 0 -7 5 -15 10 -18 6 -3 10 -11 10 -16
0 -6 -4 -8 -8 -5 -5 3 -9 -1 -9 -9 0 -13 2 -13 17 0 14 13 16 12 16 -5 0 -10
-3 -17 -7 -14 -4 2 -12 -3 -19 -11 -11 -13 -10 -14 3 -10 8 4 18 1 23 -6 4 -8
3 -10 -4 -5 -7 4 -12 1 -12 -9 0 -9 -4 -14 -8 -11 -5 3 -9 -1 -9 -9 0 -13 3
-13 17 0 15 14 17 13 15 -5 -1 -11 -5 -23 -10 -27 -4 -5 -5 -1 0 7 7 12 6 13
-6 2 -9 -8 -10 -15 -4 -20 13 -9 17 -69 5 -77 -5 -3 -7 3 -5 13 2 10 -1 25 -6
33 -9 14 -6 -22 6 -88 5 -27 3 -33 -11 -33 -16 0 -16 -1 2 -15 19 -15 19 -16
-1 -13 -17 3 -19 -3 -21 -47 0 -27 -6 -68 -12 -89 -7 -24 -7 -35 -1 -29 5 5
11 20 14 33 7 36 13 34 11 -5 -1 -24 -7 -37 -19 -41 -9 -3 -15 -10 -12 -15 4
-5 1 -9 -5 -9 -6 0 -9 -4 -6 -9 3 -5 -1 -11 -9 -15 -8 -3 -15 -12 -15 -21 0
-8 -4 -15 -9 -15 -5 0 -11 -10 -15 -23 -3 -13 -21 -44 -40 -69 -19 -25 -32
-48 -29 -52 4 -3 2 -6 -4 -6 -11 0 -38 -50 -34 -65 2 -5 -1 -7 -5 -3 -3 4 -34
-31 -66 -79 -59 -84 -83 -111 -132 -149 -14 -10 -35 -32 -48 -49 -14 -20 -16
-25 -5 -16 10 8 21 10 25 6 4 -4 1 -10 -5 -12 -7 -3 -13 -9 -13 -14 0 -6 6 -7
13 -3 8 5 8 2 -2 -9 -12 -15 -11 -17 8 -17 11 0 21 -5 21 -11 0 -5 5 -7 10 -4
8 5 7 12 -2 23 -11 15 -11 15 3 5 9 -7 19 -10 22 -6 4 3 7 0 7 -9 0 -8 7 -15
15 -15 8 0 15 9 15 21 0 17 2 18 10 6 8 -12 15 -9 40 20 17 19 41 47 54 62 13
14 63 84 110 155 47 70 89 133 94 138 21 28 59 92 66 110 7 18 10 16 31 -20
38 -62 48 -77 73 -103 12 -13 29 -34 38 -47 9 -13 24 -27 35 -30 10 -4 19 -11
19 -16 0 -5 11 -22 24 -36 14 -15 22 -31 19 -36 -3 -6 -1 -7 5 -3 14 8 44 -22
36 -36 -4 -7 -2 -8 4 -4 7 4 39 -20 78 -58 36 -35 68 -66 72 -68 4 -2 6 -7 4
-11 -1 -5 2 -6 8 -2 5 3 10 1 10 -6 0 -7 3 -9 6 -6 4 3 16 0 28 -8 22 -16 47
-20 45 -7 -4 21 3 24 17 6 8 -10 12 -13 8 -5 -5 11 -3 13 9 8 10 -3 17 -2 17
3 0 6 -5 10 -11 10 -5 0 -7 5 -4 10 3 6 1 10 -6 10 -7 0 -9 3 -6 6 4 4 13 1
22 -6 9 -8 15 -8 15 -2 0 6 -4 14 -10 17 -15 9 -12 37 3 30 6 -4 -1 5 -18 20
-16 15 -59 52 -94 83 -35 32 -68 56 -73 54 -5 -1 -7 1 -4 6 7 12 -33 44 -46
36 -7 -4 -8 -3 -4 4 11 17 -16 53 -30 41 -9 -8 -11 -5 -7 10 3 13 1 21 -6 21
-7 0 -9 -5 -5 -12 4 -7 3 -8 -5 -4 -6 4 -9 12 -6 17 3 5 -12 26 -34 47 -23 22
-41 45 -41 52 0 7 -3 11 -6 7 -9 -9 -34 19 -34 38 0 9 -4 13 -10 10 -5 -3 -10
0 -10 8 0 8 -9 26 -20 40 -11 14 -20 30 -20 37 0 6 -7 18 -15 27 -8 8 -13 19
-10 24 4 5 1 9 -4 9 -13 0 -10 22 4 32 6 5 6 8 -2 8 -12 0 -12 17 0 37 4 6 1
14 -5 16 -8 3 -6 6 5 6 12 1 15 5 11 13 -4 7 -8 31 -8 53 0 22 4 46 8 53 4 7
4 12 0 12 -4 0 1 7 12 16 10 8 14 13 7 10 -6 -4 -14 -2 -18 4 -3 5 -1 10 6 10
8 0 7 5 -2 17 -12 15 -12 16 3 10 14 -5 16 -2 10 16 -6 19 -7 100 -3 210 1 16
5 26 11 22 6 -4 7 -11 4 -17 -4 -7 -2 -8 5 -4 6 4 9 11 6 16 -8 13 22 19 35 7
10 -9 11 -9 6 0 -5 8 6 11 38 10 24 -1 42 1 39 6 -4 7 19 11 45 8 6 -1 12 3
12 8 0 5 9 8 20 6 11 -2 18 0 15 6 -4 5 6 9 20 9 17 0 24 4 19 12 -5 7 -3 8 6
3 7 -4 16 -2 21 6 4 8 12 14 16 14 4 0 18 10 31 23 13 13 30 21 38 18 8 -3 17
1 20 9 4 8 10 15 16 15 5 0 6 -5 2 -12 -4 -7 -3 -8 4 -4 7 4 12 14 12 22 0 20
18 18 23 -3 4 -17 5 -17 6 0 0 10 6 15 11 12 6 -3 10 -2 10 4 0 6 7 8 15 5 8
-4 17 1 21 10 5 13 9 14 20 5 12 -10 13 -8 8 7 -4 10 -4 16 1 12 11 -10 45 10
45 27 0 7 5 15 10 17 6 2 13 15 15 31 4 20 1 27 -11 27 -13 0 -14 3 -4 15 15
18 -1 20 -19 3 -11 -11 -12 -10 -6 1 16 29 -19 30 -71 1 -29 -15 -80 -38 -114
-51 -34 -12 -90 -40 -123 -61 -82 -54 -143 -76 -225 -83 -68 -6 -69 -5 -68 17
1 13 -1 35 -5 51 -5 18 -4 27 4 27 8 0 8 3 2 8 -6 4 -10 58 -11 122 0 63 1
109 3 103 3 -7 9 -13 14 -13 6 0 8 4 5 8 -2 4 22 8 54 8 32 -1 56 2 53 7 -2 4
3 7 12 7 10 0 13 5 9 13 -5 8 -2 8 9 -2 11 -8 17 -9 17 -2 0 6 11 13 25 17 23
6 75 62 75 82 0 5 7 15 15 22 8 7 15 21 15 31 0 11 5 19 11 19 5 0 7 5 4 10
-4 6 -12 7 -18 3 -9 -5 -9 -3 -1 8 6 8 10 24 9 36 -1 13 3 20 9 16 6 -4 5 1
-3 10 -11 14 -11 17 0 17 9 0 10 3 4 8 -12 8 -13 61 -2 79 4 6 2 15 -4 19 -8
4 -7 9 2 15 11 7 11 9 -1 9 -13 0 -13 1 0 10 12 8 12 10 1 10 -11 0 -11 3 0
17 10 11 10 14 2 9 -13 -7 -14 -1 -17 76 0 14 -5 24 -10 20 -5 -3 -6 2 -3 12
5 13 1 19 -14 23 -16 4 -17 8 -7 14 10 7 11 9 0 9 -7 0 -11 4 -8 9 7 11 -22
23 -35 16 -5 -4 -6 0 -3 8 3 9 -7 24 -27 38 -18 13 -29 17 -25 10 7 -10 4 -10
-15 0 -13 8 -30 14 -38 14 -10 0 -14 20 -16 83 -1 45 2 82 7 82 4 0 8 -5 8
-12 0 -6 3 -8 7 -5 3 4 0 15 -8 24 -12 14 -15 44 -14 126 1 59 -2 107 -5 107
-6 0 -6 11 -1 52 1 3 9 9 19 11 11 3 7 5 -10 6 -15 0 -30 6 -33 12 -4 6 0 9 8
7 31 -6 17 17 -15 25 -38 10 -66 10 -328 3 -304 -9 -511 -10 -560 -2 -25 4
-68 11 -96 16 -28 5 -97 6 -155 4 -166 -8 -362 -8 -381 1 -13 5 -18 3 -18 -9z
m-40 -131 c0 -2 -9 -3 -19 -2 -11 0 -18 5 -15 9 4 6 34 0 34 -7z m150 -125 c0
-5 -4 -10 -10 -10 -5 0 -10 5 -10 10 0 6 5 10 10 10 6 0 10 -4 10 -10z m1315
-178 c-3 -3 -11 0 -18 7 -9 10 -8 11 6 5 10 -3 15 -9 12 -12z m-1482 -29 c-3
-7 -6 -13 -8 -13 -2 0 -5 6 -8 13 -3 8 1 14 8 14 7 0 11 -6 8 -14z m1477 2 c0
-8 -4 -15 -9 -15 -13 0 -22 16 -14 24 11 11 23 6 23 -9z m10 -37 c0 -4 -5 -8
-11 -8 -5 0 -8 -4 -4 -9 3 -5 1 -12 -4 -15 -5 -4 -12 -2 -15 3 -4 5 -2 12 4
16 6 4 8 10 6 14 -3 4 1 8 9 8 8 0 15 -4 15 -9z m-1488 -35 c-6 -2 -9 -10 -6
-15 4 -7 2 -8 -5 -4 -13 9 -5 26 12 25 9 0 8 -2 -1 -6z m-2 -41 c0 -13 -12
-22 -22 -16 -10 6 -1 24 13 24 5 0 9 -4 9 -8z m1606 -104 c-4 7 -1 12 9 12 10
0 13 -5 9 -12 -5 -8 -1 -7 10 2 17 13 21 12 42 -13 21 -25 26 -39 23 -63 0 -4
4 -10 10 -13 6 -4 12 -19 13 -34 1 -15 7 -27 13 -27 6 0 6 -3 -1 -8 -12 -8
-13 -61 -1 -79 4 -6 3 -14 -3 -18 -5 -3 -10 -17 -10 -31 0 -18 4 -23 13 -18 8
6 8 3 -2 -9 -7 -9 -10 -24 -7 -33 6 -15 4 -15 -11 -3 -9 8 -14 9 -10 2 14 -22
-11 -60 -54 -80 -36 -17 -60 -20 -165 -18 -88 2 -131 7 -154 19 -18 8 -38 13
-44 9 -6 -3 -8 -3 -4 2 10 11 -10 45 -26 45 -16 0 -29 27 -21 41 4 5 -2 6 -11
2 -12 -4 -15 -3 -10 5 4 7 2 12 -4 12 -6 0 -8 5 -5 10 3 6 1 10 -5 10 -6 0 -8
5 -5 10 3 6 1 10 -6 10 -8 0 -7 5 2 17 8 9 9 14 3 10 -14 -8 -23 12 -30 64 -3
21 -1 40 5 44 6 3 9 11 6 16 -3 5 2 6 11 2 12 -4 15 -3 10 5 -4 7 -1 12 8 12
9 0 16 5 16 10 0 6 5 10 11 10 8 0 8 -4 1 -12 -5 -7 -8 -26 -6 -43 2 -17 0
-24 -5 -17 -8 13 -31 -24 -38 -63 -4 -19 -3 -19 11 0 8 11 12 23 10 27 -2 4 0
9 6 13 9 6 14 -19 11 -56 -1 -9 5 -19 13 -22 11 -4 13 -1 9 11 -6 14 -4 15 9
5 15 -13 28 -8 28 9 0 5 -5 6 -12 2 -7 -4 -8 -3 -4 5 10 16 29 2 22 -16 -4
-10 0 -13 12 -11 9 2 16 8 15 13 -1 6 5 18 14 27 8 10 13 24 9 33 -3 10 -2 13
4 10 6 -4 15 7 21 24 6 17 15 31 21 31 5 0 7 4 3 9 -3 5 11 15 30 22 23 9 34
18 30 27 -2 7 -1 11 4 7 13 -8 42 5 35 16 -3 5 -2 9 3 8 4 -2 21 4 36 11 23
11 30 11 36 1 6 -10 10 -9 15 4 5 15 9 15 23 4 12 -10 14 -10 9 -1z m-560
-132 c0 -14 -3 -23 -7 -20 -6 3 -6 22 0 42 3 10 7 -2 7 -22z m-1029 -23 c0 -9
-4 -10 -14 -2 -7 6 -13 12 -13 14 0 1 6 2 13 2 8 0 14 -6 14 -14z m-6 -30 c13
-15 12 -15 -8 -4 -24 12 -29 21 -14 21 5 0 15 -7 22 -17z m-1 -158 c0 -8 -2
-15 -4 -15 -2 0 -6 7 -10 15 -3 8 -1 15 4 15 6 0 10 -7 10 -15z m-17 -77 c-3
-18 -7 -35 -10 -38 -2 -3 -2 11 0 30 6 41 6 40 11 40 2 0 2 -15 -1 -32z m-22
-256 c-6 -2 -8 -9 -5 -14 4 -7 2 -8 -4 -4 -9 5 -8 12 1 27 7 12 13 15 16 7 2
-7 -1 -14 -8 -16z m16 -38 c-3 -3 -12 -4 -19 -1 -8 3 -5 6 6 6 11 1 17 -2 13
-5z m-9 -103 c0 -19 -5 -32 -16 -36 -14 -5 -15 -4 -4 6 6 7 12 17 12 22 0 4
-6 5 -12 1 -10 -6 -10 -5 -1 8 7 8 10 18 6 21 -3 4 -2 7 4 7 5 0 10 -13 11
-29z m-13 -321 c-3 -5 -1 -10 6 -10 7 0 10 -3 6 -6 -9 -9 -28 6 -22 17 4 5 8
9 11 9 3 0 2 -4 -1 -10z m12 -252 c-3 -8 -6 -5 -6 6 -1 11 2 17 5 13 3 -3 4
-12 1 -19z m1438 -48 c3 -5 1 -10 -4 -10 -6 0 -11 5 -11 10 0 6 2 10 4 10 3 0
8 -4 11 -10z m1 -40 c0 -12 -4 -16 -9 -11 -5 5 -6 14 -3 20 10 15 12 14 12 -9z
m-1425 -563 c-6 -8 -8 -17 -4 -20 3 -4 2 -7 -4 -7 -6 0 -14 7 -17 16 -3 8 -2
12 3 9 5 -3 12 -1 16 5 3 5 9 10 12 10 3 0 0 -6 -6 -13z m-16 -66 c3 -5 2 -12
-3 -15 -5 -3 -9 1 -9 9 0 17 3 19 12 6z m6 -40 c-6 -10 -8 -20 -6 -23 3 -3 -2
-5 -10 -5 -14 0 -12 9 8 35 14 18 19 15 8 -7z m1120 -84 c-10 -9 -11 -8 -5 6
3 10 9 15 12 12 3 -3 0 -11 -7 -18z"/>
<path d="M3050 2981 c0 -6 4 -12 8 -15 5 -3 9 1 9 9 0 8 -4 15 -9 15 -4 0 -8
-4 -8 -9z"/>
<path d="M3056 2881 c-4 -5 -2 -12 3 -15 5 -4 12 -2 15 3 4 5 2 12 -3 15 -5 4
-12 2 -15 -3z"/>
<path d="M3050 2799 c0 -5 5 -7 10 -4 6 3 10 8 10 11 0 2 -4 4 -10 4 -5 0 -10
-5 -10 -11z"/>
<path d="M1560 3616 c0 -2 7 -7 16 -10 8 -3 12 -2 9 4 -6 10 -25 14 -25 6z"/>
<path d="M2791 3593 c7 -12 15 -20 18 -17 3 2 -3 12 -13 22 -17 16 -18 16 -5
-5z"/>
<path d="M1310 3436 c0 -2 7 -7 16 -10 8 -3 12 -2 9 4 -6 10 -25 14 -25 6z"/>
<path d="M3005 3340 c3 -5 8 -10 11 -10 2 0 4 5 4 10 0 6 -5 10 -11 10 -5 0
-7 -4 -4 -10z"/>
<path d="M1317 3119 c4 -13 8 -18 11 -10 2 7 -1 18 -6 23 -8 8 -9 4 -5 -13z"/>
<path d="M1532 2830 c0 -14 2 -19 5 -12 2 6 2 18 0 25 -3 6 -5 1 -5 -13z"/>
<path d="M1518 2793 c7 -3 16 -2 19 1 4 3 -2 6 -13 5 -11 0 -14 -3 -6 -6z"/>
<path d="M1296 2601 c-3 -5 0 -11 7 -14 8 -3 14 1 14 9 0 16 -13 19 -21 5z"/>
<path d="M1506 2537 c3 -10 9 -15 12 -12 3 3 0 11 -7 18 -10 9 -11 8 -5 -6z"/>
<path d="M2743 2431 c0 -11 5 -18 9 -15 4 3 5 11 1 19 -7 21 -12 19 -10 -4z"/>
<path d="M2749 2398 c-5 -18 -6 -38 -1 -34 7 8 12 36 6 36 -2 0 -4 -1 -5 -2z"/>
<path d="M1486 2312 c-2 -4 -1 -14 3 -21 6 -10 10 -9 14 3 6 16 -8 32 -17 18z"/>
<path d="M2749 2318 c-5 -19 -8 -50 -4 -46 7 7 15 48 9 48 -2 0 -4 -1 -5 -2z"/>
<path d="M1493 2249 c-2 -23 3 -25 10 -4 4 8 3 16 -1 19 -4 3 -9 -4 -9 -15z"/>
<path d="M1495 1940 c3 -5 8 -10 11 -10 2 0 4 5 4 10 0 6 -5 10 -11 10 -5 0
-7 -4 -4 -10z"/>
<path d="M1290 1820 c0 -5 5 -10 10 -10 6 0 10 5 10 10 0 6 -4 10 -10 10 -5 0
-10 -4 -10 -10z"/>
<path d="M2759 1768 c-6 -21 -5 -38 1 -38 5 0 8 9 7 20 -1 17 -5 26 -8 18z"/>
<path d="M1310 1545 c0 -8 2 -15 4 -15 2 0 6 7 10 15 3 8 1 15 -4 15 -6 0 -10
-7 -10 -15z"/>
<path d="M2900 1206 c0 -2 8 -10 18 -17 15 -13 16 -12 3 4 -13 16 -21 21 -21
13z"/>
<path d="M1499 1063 c-13 -16 -12 -17 4 -4 16 13 21 21 13 21 -2 0 -10 -8 -17
-17z"/>
<path d="M1490 919 c0 -5 5 -7 10 -4 6 3 10 8 10 11 0 2 -4 4 -10 4 -5 0 -10
-5 -10 -11z"/>
<path d="M1497 833 c-10 -9 -9 -23 1 -23 5 0 9 7 9 15 0 17 -1 18 -10 8z"/>
<path d="M1287 778 c-4 -12 -4 -24 -2 -27 3 -2 5 1 5 8 0 7 4 10 8 7 4 -2 8 4
8 15 0 26 -12 24 -19 -3z"/>
<path d="M1493 775 c0 -8 4 -12 9 -9 5 3 6 10 3 15 -9 13 -12 11 -12 -6z"/>
<path d="M1288 617 c-3 -19 -2 -25 4 -19 6 6 8 18 6 28 -3 14 -5 12 -10 -9z"/>
<path d="M1502 620 c0 -14 2 -19 5 -12 2 6 2 18 0 25 -3 6 -5 1 -5 -13z"/>
<path d="M1296 502 c-2 -4 -1 -14 4 -22 7 -11 9 -9 7 8 -1 24 -3 26 -11 14z"/>
<path d="M1515 481 c-3 -5 -2 -12 3 -15 5 -3 9 1 9 9 0 17 -3 19 -12 6z"/>
<path d="M1536 373 c-6 -14 -5 -15 5 -6 7 7 10 15 7 18 -3 3 -9 -2 -12 -12z"/>
<path d="M1540 345 c0 -5 5 -17 10 -25 5 -8 10 -10 10 -5 0 6 -5 17 -10 25 -5
8 -10 11 -10 5z"/>
<path d="M236 118 c3 -5 10 -6 15 -3 13 9 11 12 -6 12 -8 0 -12 -4 -9 -9z"/>
<path d="M275 120 c3 -5 8 -10 11 -10 2 0 4 5 4 10 0 6 -5 10 -11 10 -5 0 -7
-4 -4 -10z"/>
<path d="M566 98 c3 -5 10 -6 15 -3 13 9 11 12 -6 12 -8 0 -12 -4 -9 -9z"/>
<path d="M2006 98 c3 -5 10 -6 15 -3 13 9 11 12 -6 12 -8 0 -12 -4 -9 -9z"/>
<path d="M1140 85 c0 -7 30 -13 34 -7 3 4 -4 9 -15 9 -10 1 -19 0 -19 -2z"/>
<path d="M1847 79 c7 -7 15 -10 18 -7 3 3 -2 9 -12 12 -14 6 -15 5 -6 -5z"/>
<path d="M1394 72 c4 -3 14 -7 22 -8 9 -1 13 0 10 4 -4 3 -14 7 -22 8 -9 1
-13 0 -10 -4z"/>
<path d="M1460 76 c0 -2 7 -7 16 -10 8 -3 12 -2 9 4 -6 10 -25 14 -25 6z"/>
<path d="M1635 70 c3 -5 8 -10 11 -10 2 0 4 5 4 10 0 6 -5 10 -11 10 -5 0 -7
-4 -4 -10z"/>
<path d="M2755 70 c3 -5 8 -10 11 -10 2 0 4 5 4 10 0 6 -5 10 -11 10 -5 0 -7
-4 -4 -10z"/>
<path d="M2820 76 c0 -2 7 -7 16 -10 8 -3 12 -2 9 4 -6 10 -25 14 -25 6z"/>
</g>
</svg>
